<?xml version="1.0" encoding="UTF-8"?>
<svg version="1.1" xmlns="http://www.w3.org/2000/svg" width="1536" height="1024">
<path d="M0 0 C506.88 0 1013.76 0 1536 0 C1536 337.92 1536 675.84 1536 1024 C1029.12 1024 522.24 1024 0 1024 C0 686.08 0 348.16 0 0 Z " fill="#FEFEFE" transform="translate(0,0)"/>
<path d="M0 0 C1.25058701 -0.00525696 2.50117401 -0.01051392 3.78965759 -0.01593018 C7.17821245 -0.02677318 10.56620829 -0.02437141 13.95473027 -0.01479292 C17.52585214 -0.00711596 21.0969526 -0.0142638 24.66807556 -0.01895142 C30.66027029 -0.02438515 36.65235351 -0.01727966 42.64453125 -0.00292969 C49.54233067 0.01339976 56.43986402 0.00809665 63.33765703 -0.0084089 C69.29391899 -0.02208323 75.25010151 -0.02391479 81.20637411 -0.0160929 C84.74900155 -0.01144981 88.29150449 -0.01069771 91.83412361 -0.02070236 C95.78665397 -0.03108827 99.73889328 -0.01663807 103.69140625 0 C105.41944992 -0.00910904 105.41944992 -0.00910904 107.18240356 -0.0184021 C125.56739068 0.12408102 139.93127877 7.14518466 153.15600586 19.63037109 C170.11599687 37.10603751 170.25061191 57.64397147 170.21459961 80.50537109 C170.21916845 83.05160663 170.2244761 85.59784094 170.23048401 88.14407349 C170.23938679 93.46459562 170.23726236 98.78496146 170.22705078 104.10546875 C170.21558056 110.21598384 170.22964364 116.32605942 170.25644726 122.43651664 C170.28145303 128.36374188 170.28375211 134.29083307 170.2773304 140.21811295 C170.27717808 142.71770076 170.28314776 145.2172974 170.29562187 147.7168541 C170.39096083 169.94996572 168.45132423 188.83134382 152.51733398 205.94189453 C146.70613895 211.79542277 139.86240243 216.25945605 133.0456543 220.84521484 C129.25545471 223.42758455 125.55252471 226.12861963 121.84350586 228.82568359 C120.34885534 229.9079098 118.85406287 230.98994001 117.35913086 232.07177734 C116.61211914 232.61302246 115.86510742 233.15426758 115.09545898 233.71191406 C111.09738259 236.60756728 107.09533537 239.49772073 103.09350586 242.38818359 C102.36333252 242.91597412 101.63315918 243.44376465 100.88085938 243.98754883 C99.5018204 244.98392004 98.12095504 245.97776963 96.73803711 246.96875 C95.43667246 247.912629 94.14733232 248.87331965 92.87084961 249.85058594 C88.61833988 253.05936004 86.08882774 254.17834251 80.86694336 253.88427734 C77.42959065 253.0667796 75.83537699 251.1487448 73.78100586 248.38818359 C72.29838971 243.94033514 72.5349677 239.29807526 72.52709961 234.63623047 C72.50260742 233.89566406 72.47811523 233.15509766 72.45288086 232.39208984 C72.44353516 231.71992432 72.43418945 231.04775879 72.42456055 230.35522461 C71.38769723 227.18602591 69.5526172 226.16764756 66.78100586 224.38818359 C63.93121073 224.01777346 61.47507618 223.87311176 58.6328125 223.92163086 C57.4218692 223.91817154 57.4218692 223.91817154 56.1864624 223.91464233 C54.43717159 223.91201716 52.68784884 223.9184366 50.9386158 223.93289375 C48.15741899 223.95485631 45.3773058 223.95103635 42.59605408 223.94041443 C35.68182544 223.9187822 28.76783669 223.93594312 21.8536377 223.96191406 C16.01887728 223.98345956 10.18481526 223.98504612 4.35006523 223.95899773 C1.63240951 223.95469474 -1.08398392 223.97915272 -3.80149841 224.00453186 C-21.9631104 224.01995181 -36.51467101 218.36420562 -49.89868164 205.79833984 C-67.21831532 187.80808061 -67.69031371 165.07579703 -67.65258789 141.61083984 C-67.65715779 139.11087402 -67.66246574 136.61090944 -67.66847229 134.11094666 C-67.67736905 128.89056266 -67.67501917 123.67033193 -67.66503906 118.44995117 C-67.65354951 111.79505799 -67.67377864 105.14090027 -67.7029562 98.48604679 C-67.7213934 93.32898152 -67.72101082 88.1720417 -67.71531868 83.01495171 C-67.71516641 80.56281222 -67.72113178 78.11066372 -67.73361015 75.65855598 C-67.83079529 53.43559884 -65.73218849 34.46346338 -49.52758789 17.60302734 C-35.68172738 4.31943528 -18.9070161 -0.09984001 0 0 Z " fill="#882BFE" transform="translate(297.218994140625,379.61181640625)"/>
<path d="M0 0 C1.3303125 0.86625 1.3303125 0.86625 2.6875 1.75 C14.35660804 13.10372675 19.05688435 27.8442177 19.375 43.75 C19.34587883 58.16326535 14.76315773 71.99060169 5 82.75 C-4.80813419 91.99387605 -17.65060217 96.53086026 -30.984375 96.24609375 C-39.51605339 95.54985575 -47.23055531 92.22214304 -54 87 C-55.65 85.02 -57.3 83.04 -59 81 C-59.33 96.84 -59.66 112.68 -60 129 C-68.91 129 -77.82 129 -87 129 C-87 84.12 -87 39.24 -87 -7 C-78.09 -7 -69.18 -7 -60 -7 C-59.67 -3.04 -59.34 0.92 -59 5 C-58.030625 3.948125 -57.06125 2.89625 -56.0625 1.8125 C-40.23172363 -13.95444259 -17.39928267 -11.63070329 0 0 Z " fill="#6A12FE" transform="translate(920,474)"/>
<path d="M0 0 C81.10151099 0 81.10151099 0 97.21875 15.02734375 C106.34376845 25.13290147 108.70352501 36.56851268 108.28125 49.80859375 C107.59137442 62.52242577 102.77046849 73.35934138 93.4453125 82.1171875 C78.66558495 93.49710552 61.97828723 94.46581621 44.125 94.1875 C38.47375 94.125625 32.8225 94.06375 27 94 C27 109.18 27 124.36 27 140 C18.09 140 9.18 140 0 140 C0 93.8 0 47.6 0 0 Z " fill="#6912FE" transform="translate(528,427)"/>
<path d="M0 0 C10.34921306 7.92667782 16.23779157 21.28352297 18 34 C19.20031809 49.84081765 15.92811694 64.7225595 5.8125 77.3125 C-3.39797025 87.02793024 -16.88901269 92.73604132 -30.22265625 93.203125 C-47.5651397 93.48622371 -63.006827 90.5643451 -76.03515625 78.125 C-87.85955229 65.3367864 -89.79862731 50.1632513 -89.17919922 33.45410156 C-88.48558395 23.95516334 -84.39994807 15.68506463 -79 8 C-78.56042969 7.36449219 -78.12085938 6.72898437 -77.66796875 6.07421875 C-59.95735569 -16.94447431 -21.73272978 -15.75541695 0 0 Z " fill="#6912FE" transform="translate(1084,476)"/>
<path d="M0 0 C8.37075613 7.6016482 11.63652216 17.91374499 12.19032288 28.95594788 C12.24610517 33.00737509 12.2411221 37.0539937 12.2109375 41.10546875 C12.20719926 42.59333098 12.20435613 44.08119569 12.20236206 45.56906128 C12.19478934 49.45209763 12.17519693 53.33498022 12.1529541 57.21795654 C12.13235722 61.1934603 12.12333098 65.16898932 12.11328125 69.14453125 C12.09194384 76.92065056 12.05681503 84.69661211 12.015625 92.47265625 C3.435625 92.47265625 -5.144375 92.47265625 -13.984375 92.47265625 C-14.314375 88.84265625 -14.644375 85.21265625 -14.984375 81.47265625 C-15.768125 82.52453125 -16.551875 83.57640625 -17.359375 84.66015625 C-21.76472932 89.84354451 -27.63036222 92.35465199 -33.984375 94.47265625 C-37.50013921 94.75533664 -41.02100485 94.75033857 -44.546875 94.78515625 C-45.49884766 94.81416016 -46.45082031 94.84316406 -47.43164062 94.87304688 C-56.27449196 94.9513022 -64.28010126 92.49652324 -71.3828125 87.09375 C-78.55601585 79.83306856 -80.27991759 72.1006397 -80.30126953 62.25976562 C-80.14183165 54.12646543 -77.2754415 47.99563007 -71.81640625 42.0390625 C-59.96780194 31.9083795 -44.12332159 32.31904961 -29.484375 32.41015625 C-28.07552242 32.41518092 -26.66666811 32.41974212 -25.2578125 32.42382812 C-21.83328862 32.43555595 -18.40885453 32.45196934 -14.984375 32.47265625 C-15.26343644 30.36974237 -15.55485618 28.2684657 -15.8515625 26.16796875 C-16.01253418 24.99766113 -16.17350586 23.82735352 -16.33935547 22.62158203 C-16.80952655 19.29862533 -16.80952655 19.29862533 -19.109375 16.34765625 C-25.35911936 12.27173602 -31.48935448 10.33267935 -38.984375 11.47265625 C-42.06052983 12.35234801 -44.45750012 13.50723572 -46.984375 15.47265625 C-47.6866395 16.82410227 -48.33996317 18.20180905 -48.94921875 19.59765625 C-50.23095703 21.74414062 -50.23095703 21.74414062 -51.984375 23.47265625 C-56.11587917 24.48743839 -60.07419544 24.22932409 -64.296875 23.97265625 C-65.41900391 23.9365625 -66.54113281 23.90046875 -67.69726562 23.86328125 C-70.46312121 23.76912446 -73.22199741 23.63778286 -75.984375 23.47265625 C-76.26232875 14.3001825 -73.2586157 8.01481203 -67.0390625 1.328125 C-50.18205605 -13.89445687 -17.88044474 -13.76231081 0 0 Z " fill="#6912FE" transform="translate(1261.984375,474.52734375)"/>
<path d="M0 0 C8.69938192 6.93581584 14.09024443 17.08785321 17.08203125 27.74609375 C17.86522527 34.8927392 17.58203125 42.11916164 17.58203125 49.30859375 C-6.83796875 49.30859375 -31.25796875 49.30859375 -56.41796875 49.30859375 C-52.6257691 62.58040215 -52.6257691 62.58040215 -42.79296875 71.37109375 C-34.35521353 75.01985277 -26.17025214 74.11488887 -17.76953125 70.8671875 C-15.34024836 69.2570814 -14.54500432 68.04386445 -12.93359375 65.68359375 C-10.85981355 63.15487513 -9.84492776 62.3945842 -6.59716797 61.74047852 C-3.22126866 61.61992889 0.08359931 61.69785317 3.45703125 61.87109375 C5.205 61.9184668 5.205 61.9184668 6.98828125 61.96679688 C9.85546016 62.04905201 12.71743511 62.16393323 15.58203125 62.30859375 C14.33871832 72.16935151 8.24839364 80.19732978 0.58203125 86.30859375 C-9.14004258 92.42871892 -19.33889241 94.86442796 -30.73046875 94.74609375 C-31.73795166 94.7399707 -32.74543457 94.73384766 -33.78344727 94.72753906 C-41.63378872 94.56323988 -48.1702103 93.4726454 -55.41796875 90.30859375 C-56.16820312 90.00824219 -56.9184375 89.70789063 -57.69140625 89.3984375 C-69.85673957 84.01492793 -75.85656005 73.71596467 -80.65625 61.828125 C-85.52633042 45.71939745 -82.8879818 27.86282654 -75.21484375 13.23828125 C-67.66908756 0.9354179 -58.06750673 -4.97873192 -44.41796875 -8.69140625 C-29.06855221 -11.71326009 -12.89590561 -9.02088389 0 0 Z " fill="#6912FE" transform="translate(800.41796875,474.69140625)"/>
<path d="M0 0 C4.30739041 2.3717425 7.10863109 5.46601752 9 10 C9.64400866 16.82649182 7.8640774 21.71421329 3.6171875 26.921875 C2.71226562 27.85515625 1.80734375 28.7884375 0.875 29.75 C-0.12093446 30.79585434 -1.11438652 31.84407766 -2.10546875 32.89453125 C-2.59708496 33.4148291 -3.08870117 33.93512695 -3.59521484 34.47119141 C-5.65085914 36.70832116 -7.54218546 39.06402567 -9.4375 41.4375 C-13.28174639 46.21701922 -17.37089045 50.69320344 -21.56054688 55.16601562 C-24.65765465 58.49137277 -27.59614376 61.88710807 -30.4375 65.4375 C-34.46446744 70.45841948 -38.79214703 75.12421817 -43.20068359 79.80615234 C-46.46359014 83.29033756 -49.57375578 86.83606211 -52.5625 90.5625 C-55.98364946 94.80270918 -59.49132235 98.94155543 -63.125 103 C-63.60396729 103.55244385 -64.08293457 104.1048877 -64.57641602 104.67407227 C-68.51487965 109.01021123 -72.41393842 111.51555676 -78.37109375 112.3203125 C-85.16889433 111.67779827 -88.28620807 108.69826049 -93 104 C-94.00481151 103.07214118 -95.01430792 102.1493412 -96.02734375 101.23046875 C-103.73101377 94.21766166 -111.21341436 86.96516925 -118.63278198 79.65332031 C-119.65989861 78.64364319 -120.69038584 77.63738218 -121.72439575 76.63476562 C-134.22944053 64.49023623 -134.22944053 64.49023623 -135.5 55.4375 C-134.78610962 50.52950362 -133.27318526 46.9130767 -129.421875 43.671875 C-125.30087947 41.03592291 -121.93111188 40.37240394 -117 41 C-111.72442151 43.12925567 -108.45911763 46.20940782 -104.625 50.25 C-103.47718137 51.43025663 -102.32745226 52.60865841 -101.17578125 53.78515625 C-100.62744629 54.34605957 -100.07911133 54.90696289 -99.51416016 55.48486328 C-97.12331386 57.87725156 -94.56587228 60.04866611 -91.98828125 62.234375 C-87.8006869 65.9530246 -83.92223603 70.00542765 -80 74 C-75.67008689 72.42362501 -73.26761348 69.07263458 -70.4375 65.625 C-69.37154581 64.35269496 -68.30380038 63.08188875 -67.234375 61.8125 C-66.69619141 61.173125 -66.15800781 60.53375 -65.60351562 59.875 C-63.1983298 57.06260245 -60.70240348 54.33916459 -58.1875 51.625 C-53.10232312 46.12154641 -48.1485744 40.52710665 -43.29296875 34.8203125 C-37.47542592 27.99044504 -31.57088159 21.27613121 -25.47265625 14.6953125 C-23.3067786 12.33440321 -21.20568366 9.93570312 -19.125 7.5 C-13.26468534 0.89682855 -9.09919185 -1.74433721 0 0 Z " fill="#FDFCFE" transform="translate(418,436)"/>
<path d="M0 0 C8.91 0 17.82 0 27 0 C27 46.86 27 93.72 27 142 C18.09 142 9.18 142 0 142 C0 95.14 0 48.28 0 0 Z " fill="#6B11FE" transform="translate(953,425)"/>
<path d="M0 0 C0 8.58 0 17.16 0 26 C-8.0625 25.8125 -8.0625 25.8125 -10.55883789 25.72973633 C-16.97171737 25.65832 -21.22396486 27.25690816 -26.6875 30.6875 C-32.19510861 36.19510861 -34.08527034 42.98000445 -34.20532227 50.59472656 C-34.22526749 51.71558655 -34.24521271 52.83644653 -34.26576233 53.99127197 C-34.28247482 55.19555847 -34.29918732 56.39984497 -34.31640625 57.640625 C-34.33718735 58.87794373 -34.35796844 60.11526245 -34.37937927 61.39007568 C-34.43365872 64.67138691 -34.48391779 67.95272733 -34.53222656 71.23413086 C-34.58256092 74.58583104 -34.6382636 77.9374372 -34.69335938 81.2890625 C-34.80123515 87.8593078 -34.90038431 94.42960346 -35 101 C-43.91 101 -52.82 101 -62 101 C-62 68 -62 35 -62 1 C-53.42 1 -44.84 1 -36 1 C-35.67 5.95 -35.34 10.9 -35 16 C-34.484375 14.96875 -33.96875 13.9375 -33.4375 12.875 C-29.50854632 6.09858164 -23.90338511 2.36015773 -16.62890625 -0.31640625 C-10.92272735 -1.80018234 -5.66679258 -1.41669815 0 0 Z " fill="#6810FE" transform="translate(1178,466)"/>
<path d="M0 0 C0 8.58 0 17.16 0 26 C-2.59875 25.896875 -5.1975 25.79375 -7.875 25.6875 C-15.10205592 25.60213565 -21.2987114 26.06115918 -27 31 C-31.45024789 36.82992847 -33.09305591 42.43732443 -33.20532227 49.68652344 C-33.22526749 50.82740417 -33.24521271 51.96828491 -33.26576233 53.14373779 C-33.28247482 54.36989807 -33.29918732 55.59605835 -33.31640625 56.859375 C-33.33718735 58.11888977 -33.35796844 59.37840454 -33.37937927 60.67608643 C-33.43366302 64.01658871 -33.48392069 67.35710222 -33.53222656 70.69769287 C-33.58255704 74.10971383 -33.63813169 77.52164912 -33.69335938 80.93359375 C-33.80124221 87.62232977 -33.90038733 94.31111522 -34 101 C-42.91 101 -51.82 101 -61 101 C-61 68 -61 35 -61 1 C-52.42 1 -43.84 1 -35 1 C-34.67 5.29 -34.34 9.58 -34 14 C-33.175 12.783125 -32.35 11.56625 -31.5 10.3125 C-24.23056424 0.62563395 -11.7260121 -3.9086707 0 0 Z " fill="#6710FE" transform="translate(713,466)"/>
<path d="M0 0 C8.01167361 4.89361685 12.23086992 10.51292227 15.16796875 19.32421875 C16.00866259 29.92247388 14.71281157 37.56384917 9.16796875 46.57421875 C3.97825367 52.14599875 -3.92001148 55.63700896 -11.45703125 56.01171875 C-19.79006876 55.48339937 -26.82239285 51.38130009 -32.359375 45.2421875 C-38.61326487 37.09720096 -38.96723414 28.22239135 -37.83203125 18.32421875 C-35.54979705 10.54846505 -30.57475763 4.30056659 -23.734375 0.0078125 C-15.77655079 -4.02022198 -7.95688312 -4.01364901 0 0 Z " fill="#FDFCFE" transform="translate(896.83203125,490.67578125)"/>
<path d="M0 0 C7.04588898 5.98123003 10.46303494 12.2089338 11.30859375 21.328125 C11.6603851 31.17828288 9.95498574 38.55582212 3.875 46.375 C-1.65941772 52.17967591 -8.11142626 54.16756499 -16 54.5625 C-23.04105894 54.28194367 -28.79730414 52.17561175 -33.84765625 47.16796875 C-40.68530187 38.65031193 -42.20123144 29.64140722 -41.30175781 18.98339844 C-40.16723427 11.52638446 -35.87478469 4.58996611 -29.83984375 0.11328125 C-20.30289594 -5.65748335 -9.63298279 -5.84579053 0 0 Z " fill="#FDFCFE" transform="translate(1063,492)"/>
<path d="M0 0 C4.90875 -0.0825 9.8175 -0.165 14.875 -0.25 C16.40237793 -0.28641602 17.92975586 -0.32283203 19.50341797 -0.36035156 C29.8204387 -0.44389019 38.73407317 0.90951211 46.52734375 8.2421875 C50.71986365 13.24652159 52.78741779 19.14906739 52.4453125 25.671875 C51.1445965 32.47210953 47.61706952 38.61044191 42.00341797 42.71435547 C33.69395228 48.04675205 24.43807565 47.3563792 14.9375 47.1875 C10.008125 47.125625 5.07875 47.06375 0 47 C0 31.49 0 15.98 0 0 Z " fill="#FDFDFE" transform="translate(555,450)"/>
<path d="M0 0 C1.30388672 0.01353516 2.60777344 0.02707031 3.95117188 0.04101562 C7.15537622 0.07622666 10.35872105 0.12547906 13.5625 0.1875 C13.60331717 1.7667088 13.63223724 3.34622756 13.65625 4.92578125 C13.68235352 6.24509644 13.68235352 6.24509644 13.70898438 7.59106445 C13.35779187 13.81595159 10.12839468 17.93638138 5.6875 22.0625 C-0.85837324 27.33523092 -7.21250813 27.97199997 -15.4375 27.1875 C-20.12091439 25.56959321 -23.06101164 23.57486313 -25.4375 19.1875 C-26.18582184 14.11723774 -26.26744295 9.78099046 -23.875 5.1875 C-16.52691512 -0.84169785 -9.1368895 -0.17987819 0 0 Z " fill="#FCFAFE" transform="translate(1233.4375,523.8125)"/>
<path d="M0 0 C6.28533806 3.21001194 9.29785658 7.98871588 11.64453125 14.4453125 C12.125 16.375 12.125 16.375 12.125 20.375 C-3.055 20.375 -18.235 20.375 -33.875 20.375 C-32.47247298 11.95983791 -29.1801013 7.05713742 -22.71875 1.6015625 C-15.86683951 -2.95669999 -7.51964097 -3.01791611 0 0 Z " fill="#FDFBFE" transform="translate(778.875,486.625)"/>
<path d="M0 0 C8.91 0 17.82 0 27 0 C27 46.86 27 93.72 27 142 C18.09 142 9.18 142 0 142 C0 95.14 0 48.28 0 0 Z M2 2 C2 47.87 2 93.74 2 141 C9.92 141 17.84 141 26 141 C26 95.13 26 49.26 26 2 C18.08 2 10.16 2 2 2 Z " fill="#5508FE" transform="translate(953,425)"/>
<path d="M0 0 C8.58 0 17.16 0 26 0 C26 4.62 26 9.24 26 14 C25.67 14 25.34 14 25 14 C25 9.71 25 5.42 25 1 C17.41 1 9.82 1 2 1 C2 44.89 2 88.78 2 134 C9.59 134 17.18 134 25 134 C25 118.16 25 102.32 25 86 C25.33 86 25.66 86 26 86 C26 102.5 26 119 26 136 C17.42 136 8.84 136 0 136 C0 91.12 0 46.24 0 0 Z " fill="#5504FE" transform="translate(833,467)"/>
<path d="M0 0 C1.28197266 -0.00386719 1.28197266 -0.00386719 2.58984375 -0.0078125 C5.0625 0.125 5.0625 0.125 9.0625 1.125 C9.0625 9.705 9.0625 18.285 9.0625 27.125 C4.4425 26.465 -0.1775 25.805 -4.9375 25.125 C-4.9375 24.795 -4.9375 24.465 -4.9375 24.125 C-3.31259046 24.09801811 -1.68755367 24.07861243 -0.0625 24.0625 C0.84242187 24.05089844 1.74734375 24.03929687 2.6796875 24.02734375 C5.0625 24.125 5.0625 24.125 7.0625 25.125 C7.0625 17.535 7.0625 9.945 7.0625 2.125 C-0.8575 2.62 -0.8575 2.62 -8.9375 3.125 C-7.10992424 -0.53015153 -3.65310295 -0.01098678 0 0 Z " fill="#5A0EFE" transform="translate(1168.9375,464.875)"/>
<path d="M0 0 C8.25 0 16.5 0 25 0 C23.875 6.75 23.875 6.75 21.4375 10.375 C20.75494141 11.40753906 20.75494141 11.40753906 20.05859375 12.4609375 C19.70925781 12.96882812 19.35992188 13.47671875 19 14 C19 11 19 11 23 2 C15.41 2 7.82 2 0 2 C0 1.34 0 0.68 0 0 Z " fill="#5708FE" transform="translate(791,537)"/>
<path d="M0 0 C0.66 0.99 1.32 1.98 2 3 C-7.22551253 13.74259681 -7.22551253 13.74259681 -13 17 C-11.44182816 13.35015184 -9.18875601 10.8314046 -6.5 7.9375 C-4.09463269 5.34079665 -1.96595796 2.94893694 0 0 Z " fill="#7F20FE" transform="translate(420,463)"/>
<path d="M0 0 C0.66 0.33 1.32 0.66 2 1 C1.38125 1.7425 0.7625 2.485 0.125 3.25 C-1.60437281 5.48801188 -2.86106661 7.43739987 -4 10 C-4.66 10 -5.32 10 -6 10 C-6.99 12.97 -7.98 15.94 -9 19 C-10 15 -10 15 -8.92578125 12.59765625 C-8.39339844 11.76105469 -7.86101563 10.92445313 -7.3125 10.0625 C-6.75949219 9.18980469 -6.20648437 8.31710937 -5.63671875 7.41796875 C-3.88361356 4.82805917 -2.04890919 2.36412599 0 0 Z " fill="#540EFE" transform="translate(1009,479)"/>
<path d="M0 0 C-1 1.4375 -1 1.4375 -3 3 C-4.99012918 3.32098858 -6.98452619 3.63490181 -8.9921875 3.81640625 C-11.37116513 4.03393922 -13.66797175 4.48986882 -16 5 C-14.52883203 2.05766405 -12.17404609 1.66202197 -9.2109375 0.59765625 C-6.02384809 -0.26387145 -3.28479071 -0.20529942 0 0 Z " fill="#5A13FE" transform="translate(1037,467)"/>
<path d="M0 0 C0.33 0 0.66 0 1 0 C1.05429959 1.74965358 1.09292823 3.49979787 1.125 5.25 C1.14820313 6.22453125 1.17140625 7.1990625 1.1953125 8.203125 C0.99862781 11.0196498 0.44568916 12.60949036 -1 15 C-2.4783226 12.04335481 -2.06032783 9.25770263 -2 6 C-1.34 6 -0.68 6 0 6 C0 4.02 0 2.04 0 0 Z " fill="#5608FE" transform="translate(635,470)"/>
<path d="M0 0 C0.680625 0.70125 1.36125 1.4025 2.0625 2.125 C5.20780513 5.27934337 8.5888386 8.13934304 12 11 C11.01 11.33 10.02 11.66 9 12 C5.74483572 8.83525695 2.67991207 5.67247209 0 2 C0 1.34 0 0.68 0 0 Z " fill="#5811FE" transform="translate(861,531)"/>
<path d="M0 0 C0.33 0.99 0.66 1.98 1 3 C-0.4375 5.1875 -0.4375 5.1875 -2 7 C-3.32 6.67 -4.64 6.34 -6 6 C-4.02 4.02 -2.04 2.04 0 0 Z " fill="#7A17FF" transform="translate(391,497)"/>
<path d="M0 0 C0.99 0 1.98 0 3 0 C3 0.66 3 1.32 3 2 C1.46875 3.2890625 1.46875 3.2890625 -0.5 4.625 C-1.1496875 5.07101562 -1.799375 5.51703125 -2.46875 5.9765625 C-2.9740625 6.31429688 -3.479375 6.65203125 -4 7 C-2.92598892 4.08482708 -2.22189824 2.22189824 0 0 Z " fill="#5811FE" transform="translate(685,472)"/>
</svg>
